/* XPM */
static char * image_name[]={
"32 32 15 2",
"  	c #1A1A1A",
". 	c #55562F",
"X 	c #FFFF00",
"o 	c #B8860B",
"O 	c #ADFF2F",
"+ 	c #F2DE0D",
"@ 	c #CDCD1D",
"# 	c #242424",
"$ 	c #2B2B2B",
"% 	c #6B8E23",
"& 	c #00562D",
"* 	c #292929",
"= 	c #212121",
"- 	c #262626",
"; 	c #7CFC00",
"                                                                ",
"                                                                ",
"                                                                ",
"                                                                ",
"                                                                ",
"                                                                ",
"                                                                ",
"                                                                ",
"                                                                ",
"                                                                ",
"                                                                ",
"    . X X X X .   . o O X X o   o X X         + X @   o @ O     ",
"    X X @ @ X @ . X X X X X X . O X O           X .   # @ .     ",
"    + + $ $ + + . + + . o + + . + + o           o o   % .       ",
"    @ @ $ $ @ @ . @ @ @ @ @ O & @ @ %           % O   O         ",
"    O O *   O O . O O O O o = . O O .           = O . %         ",
"    O O % % O O . O O .       % O O % % % %       O O =         ",
"    % O O O O % . O O *       O O O O O o .       % %           ",
"      . % O O % . O O =                       =   % &           ",
"          = . & & .                         . O - %             ",
"                                            - ; % -             ",
"                                                                ",
"                                                                ",
"                                                                ",
"                                                                ",
"                                                                ",
"                                                                ",
"                                                                ",
"                                                                ",
"                                                                ",
"                                                                ",
"                                                                "
};
